# xmcd CD database file
#
# Track frame offsets:
#	150
#	9510
#	22862
#	33112
#	43955
#	54815
#	62545
#	74180
#	81995
#	95590
#	104700
#	114775
#	128570
#	136907
#
# Disc length: 2026 seconds
#
# Revision: 1
# Processed by: cddbd v1.5.2PL0 Copyright (c) Steve Scherf et al.
# Submitted via: CDex 1.70beta2
#
DISCID=b407e80e
DTITLE=Glen Campbell - Big Bluegrass Special
DYEAR=1996
DGENRE=Country
TTITLE0=Truck Driving Man
TTITLE1=There's More Pretty Girls Than One
TTITLE2=Weary Lonesome Blues
TTITLE3=No Vacancy
TTITLE4=Rainin' On The Mountain
TTITLE5=Kentucky Means Paradise
TTITLE6=Brown's Ferry Blues
TTITLE7=Lonesome Jailhouse Blues
TTITLE8=One Hundred Miles Away From Home
TTITLE9=This Old White Mule Of Mine
TTITLE10=Poor Boy Lookin' For A Home
TTITLE11=Long Black Limousine
TTITLE12=Divorce Me C.O.D.
TTITLE13=Dark As A Dungeon
EXTD=YEAR: 1996
EXTT0=
EXTT1=
EXTT2=
EXTT3=
EXTT4=
EXTT5=
EXTT6=
EXTT7=
EXTT8=
EXTT9=
EXTT10=
EXTT11=
EXTT12=
EXTT13=
PLAYORDER=
